<mxfile host="app.diagrams.net" agent="Mozilla/5.0 (Macintosh; Intel Mac OS X 10.15; rv:138.0) Gecko/20100101 Firefox/138.0" version="26.2.14">
  <diagram name="Seite-1" id="NgYuw2YVm1CqWaHEaC4b">
    <mxGraphModel dx="916" dy="724" grid="1" gridSize="10" guides="1" tooltips="1" connect="1" arrows="1" fold="1" page="1" pageScale="1" pageWidth="827" pageHeight="1169" math="0" shadow="0">
      <root>
        <mxCell id="0" />
        <mxCell id="1" parent="0" />
        <mxCell id="RallTQ6Tu8Bq6Qe83JXk-1" value="&lt;div&gt;&lt;b&gt;Browser&lt;/b&gt;&lt;/div&gt;" style="rounded=0;whiteSpace=wrap;html=1;" parent="1" vertex="1">
          <mxGeometry y="40" width="120" height="100" as="geometry" />
        </mxCell>
        <mxCell id="RallTQ6Tu8Bq6Qe83JXk-2" value="" style="endArrow=classic;html=1;rounded=0;entryX=0;entryY=0.25;entryDx=0;entryDy=0;exitX=1;exitY=0.3;exitDx=0;exitDy=0;exitPerimeter=0;" parent="1" edge="1" target="OzbAN5umfe2tvdXRKAje-3" source="RallTQ6Tu8Bq6Qe83JXk-1">
          <mxGeometry width="50" height="50" relative="1" as="geometry">
            <mxPoint x="130" y="70" as="sourcePoint" />
            <mxPoint x="240" y="70" as="targetPoint" />
          </mxGeometry>
        </mxCell>
        <mxCell id="RallTQ6Tu8Bq6Qe83JXk-3" value="&lt;div&gt;HTTP-GET / -POST&lt;/div&gt;" style="edgeLabel;html=1;align=center;verticalAlign=middle;resizable=0;points=[];" parent="RallTQ6Tu8Bq6Qe83JXk-2" vertex="1" connectable="0">
          <mxGeometry relative="1" as="geometry">
            <mxPoint y="-10" as="offset" />
          </mxGeometry>
        </mxCell>
        <mxCell id="OzbAN5umfe2tvdXRKAje-3" value="&lt;div style=&quot;line-height: 150%;&quot;&gt;&lt;div&gt;&lt;div&gt;&lt;b&gt;nginx&lt;/b&gt;&lt;/div&gt;&lt;div&gt;&lt;i&gt;&lt;font style=&quot;font-size: 10px; line-height: 150%;&quot;&gt;directive: auth_request&lt;/font&gt;&lt;/i&gt;&lt;/div&gt;&lt;/div&gt;&lt;/div&gt;" style="rounded=0;whiteSpace=wrap;html=1;" vertex="1" parent="1">
          <mxGeometry x="260" y="50" width="120" height="80" as="geometry" />
        </mxCell>
        <mxCell id="OzbAN5umfe2tvdXRKAje-4" value="&lt;div style=&quot;line-height: 150%;&quot;&gt;&lt;div&gt;&lt;b&gt;nginx-auth-server&lt;/b&gt;&lt;br&gt;&lt;div&gt;&lt;i&gt;&lt;font style=&quot;font-size: 10px; line-height: 150%;&quot;&gt;check_session()&lt;/font&gt;&lt;/i&gt;&lt;/div&gt;&lt;/div&gt;&lt;/div&gt;" style="rounded=0;whiteSpace=wrap;html=1;" vertex="1" parent="1">
          <mxGeometry x="520" y="60" width="120" height="60" as="geometry" />
        </mxCell>
        <mxCell id="OzbAN5umfe2tvdXRKAje-5" value="" style="endArrow=classic;html=1;rounded=0;entryX=0;entryY=0.333;entryDx=0;entryDy=0;entryPerimeter=0;exitX=1;exitY=0.375;exitDx=0;exitDy=0;exitPerimeter=0;" edge="1" parent="1" source="OzbAN5umfe2tvdXRKAje-3" target="OzbAN5umfe2tvdXRKAje-4">
          <mxGeometry width="50" height="50" relative="1" as="geometry">
            <mxPoint x="390" y="80" as="sourcePoint" />
            <mxPoint x="490" y="79.5" as="targetPoint" />
          </mxGeometry>
        </mxCell>
        <mxCell id="OzbAN5umfe2tvdXRKAje-6" value="GET /auth/check/" style="edgeLabel;html=1;align=center;verticalAlign=middle;resizable=0;points=[];" vertex="1" connectable="0" parent="OzbAN5umfe2tvdXRKAje-5">
          <mxGeometry relative="1" as="geometry">
            <mxPoint y="-10" as="offset" />
          </mxGeometry>
        </mxCell>
        <mxCell id="OzbAN5umfe2tvdXRKAje-7" value="First request or invalid/expired session" style="text;strokeColor=none;fillColor=none;html=1;fontSize=24;fontStyle=1;verticalAlign=middle;align=left;" vertex="1" parent="1">
          <mxGeometry width="460" height="40" as="geometry" />
        </mxCell>
        <mxCell id="OzbAN5umfe2tvdXRKAje-9" value="" style="endArrow=classic;html=1;rounded=0;entryX=1;entryY=0.625;entryDx=0;entryDy=0;entryPerimeter=0;exitX=0;exitY=0.667;exitDx=0;exitDy=0;exitPerimeter=0;" edge="1" parent="1" source="OzbAN5umfe2tvdXRKAje-4" target="OzbAN5umfe2tvdXRKAje-3">
          <mxGeometry width="50" height="50" relative="1" as="geometry">
            <mxPoint x="480" y="100" as="sourcePoint" />
            <mxPoint x="370" y="100" as="targetPoint" />
          </mxGeometry>
        </mxCell>
        <mxCell id="OzbAN5umfe2tvdXRKAje-10" value="HTTP 401 Unauthorized" style="edgeLabel;html=1;align=center;verticalAlign=middle;resizable=0;points=[];" vertex="1" connectable="0" parent="OzbAN5umfe2tvdXRKAje-9">
          <mxGeometry y="10" relative="1" as="geometry">
            <mxPoint as="offset" />
          </mxGeometry>
        </mxCell>
        <mxCell id="OzbAN5umfe2tvdXRKAje-11" value="" style="endArrow=classic;html=1;rounded=0;exitX=0;exitY=0.75;exitDx=0;exitDy=0;entryX=1;entryY=0.7;entryDx=0;entryDy=0;entryPerimeter=0;" edge="1" parent="1" source="OzbAN5umfe2tvdXRKAje-3" target="RallTQ6Tu8Bq6Qe83JXk-1">
          <mxGeometry width="50" height="50" relative="1" as="geometry">
            <mxPoint x="250" y="110" as="sourcePoint" />
            <mxPoint x="130" y="110" as="targetPoint" />
          </mxGeometry>
        </mxCell>
        <mxCell id="OzbAN5umfe2tvdXRKAje-12" value="&lt;div&gt;HTTP 302 Found&lt;/div&gt;&lt;div&gt;Location: /auth/&lt;/div&gt;" style="edgeLabel;html=1;align=center;verticalAlign=middle;resizable=0;points=[];" vertex="1" connectable="0" parent="OzbAN5umfe2tvdXRKAje-11">
          <mxGeometry y="16" relative="1" as="geometry">
            <mxPoint as="offset" />
          </mxGeometry>
        </mxCell>
        <mxCell id="OzbAN5umfe2tvdXRKAje-13" value="&lt;div style=&quot;line-height: 150%;&quot;&gt;&lt;div&gt;&lt;b&gt;Browser&lt;/b&gt;&lt;/div&gt;&lt;div&gt;&lt;font style=&quot;font-size: 10px;&quot;&gt;&lt;i&gt;/auth/index.html&lt;/i&gt;&lt;/font&gt;&lt;/div&gt;&lt;/div&gt;" style="rounded=0;whiteSpace=wrap;html=1;" vertex="1" parent="1">
          <mxGeometry y="220" width="120" height="200" as="geometry" />
        </mxCell>
        <mxCell id="OzbAN5umfe2tvdXRKAje-14" value="" style="endArrow=classic;html=1;rounded=0;entryX=0;entryY=0.25;entryDx=0;entryDy=0;" edge="1" parent="1">
          <mxGeometry width="50" height="50" relative="1" as="geometry">
            <mxPoint x="120" y="260" as="sourcePoint" />
            <mxPoint x="260.00000000000006" y="260" as="targetPoint" />
          </mxGeometry>
        </mxCell>
        <mxCell id="OzbAN5umfe2tvdXRKAje-15" value="GET /auth/" style="edgeLabel;html=1;align=center;verticalAlign=middle;resizable=0;points=[];" vertex="1" connectable="0" parent="OzbAN5umfe2tvdXRKAje-14">
          <mxGeometry relative="1" as="geometry">
            <mxPoint y="-10" as="offset" />
          </mxGeometry>
        </mxCell>
        <mxCell id="OzbAN5umfe2tvdXRKAje-16" value="&lt;div style=&quot;line-height: 150%;&quot;&gt;&lt;div&gt;&lt;div&gt;&lt;b&gt;nginx&lt;/b&gt;&lt;/div&gt;&lt;div&gt;&lt;i&gt;&lt;font style=&quot;font-size: 10px; line-height: 150%;&quot;&gt;location /auth/&lt;/font&gt;&lt;/i&gt;&lt;/div&gt;&lt;/div&gt;&lt;/div&gt;" style="rounded=0;whiteSpace=wrap;html=1;" vertex="1" parent="1">
          <mxGeometry x="260" y="230" width="120" height="80" as="geometry" />
        </mxCell>
        <mxCell id="OzbAN5umfe2tvdXRKAje-20" value="&lt;div&gt;Login flow&lt;/div&gt;" style="text;strokeColor=none;fillColor=none;html=1;fontSize=24;fontStyle=1;verticalAlign=middle;align=left;" vertex="1" parent="1">
          <mxGeometry y="180" width="460" height="40" as="geometry" />
        </mxCell>
        <mxCell id="OzbAN5umfe2tvdXRKAje-23" value="" style="endArrow=classic;html=1;rounded=0;exitX=0;exitY=0.5;exitDx=0;exitDy=0;entryX=1;entryY=0.313;entryDx=0;entryDy=0;entryPerimeter=0;" edge="1" parent="1">
          <mxGeometry width="50" height="50" relative="1" as="geometry">
            <mxPoint x="260" y="280" as="sourcePoint" />
            <mxPoint x="120.00000000000006" y="280.08" as="targetPoint" />
          </mxGeometry>
        </mxCell>
        <mxCell id="OzbAN5umfe2tvdXRKAje-24" value="&lt;div&gt;HTTP 200 No Error&lt;/div&gt;" style="edgeLabel;html=1;align=center;verticalAlign=middle;resizable=0;points=[];" vertex="1" connectable="0" parent="OzbAN5umfe2tvdXRKAje-23">
          <mxGeometry y="10" relative="1" as="geometry">
            <mxPoint as="offset" />
          </mxGeometry>
        </mxCell>
        <mxCell id="OzbAN5umfe2tvdXRKAje-26" value="&lt;div style=&quot;line-height: 150%;&quot;&gt;&lt;div&gt;&lt;div&gt;&lt;b&gt;nginx&lt;/b&gt;&lt;/div&gt;&lt;div&gt;&lt;i&gt;&lt;font style=&quot;font-size: 10px; line-height: 150%;&quot;&gt;location /auth/login/&lt;/font&gt;&lt;/i&gt;&lt;/div&gt;&lt;/div&gt;&lt;/div&gt;" style="rounded=0;whiteSpace=wrap;html=1;" vertex="1" parent="1">
          <mxGeometry x="260" y="340" width="120" height="80" as="geometry" />
        </mxCell>
        <mxCell id="OzbAN5umfe2tvdXRKAje-27" value="&lt;div style=&quot;line-height: 150%;&quot;&gt;&lt;div&gt;&lt;b&gt;nginx-auth-server&lt;/b&gt;&lt;br&gt;&lt;div&gt;&lt;i&gt;&lt;font style=&quot;font-size: 10px; line-height: 150%;&quot;&gt;handle_login()&lt;/font&gt;&lt;/i&gt;&lt;/div&gt;&lt;/div&gt;&lt;/div&gt;" style="rounded=0;whiteSpace=wrap;html=1;" vertex="1" parent="1">
          <mxGeometry x="520" y="350" width="120" height="60" as="geometry" />
        </mxCell>
        <mxCell id="OzbAN5umfe2tvdXRKAje-28" value="" style="endArrow=classic;html=1;rounded=0;entryX=0;entryY=0.333;entryDx=0;entryDy=0;entryPerimeter=0;exitX=1;exitY=0.375;exitDx=0;exitDy=0;exitPerimeter=0;" edge="1" source="OzbAN5umfe2tvdXRKAje-26" target="OzbAN5umfe2tvdXRKAje-27" parent="1">
          <mxGeometry width="50" height="50" relative="1" as="geometry">
            <mxPoint x="390" y="370" as="sourcePoint" />
            <mxPoint x="490" y="369.5" as="targetPoint" />
          </mxGeometry>
        </mxCell>
        <mxCell id="OzbAN5umfe2tvdXRKAje-29" value="GET /auth/check/" style="edgeLabel;html=1;align=center;verticalAlign=middle;resizable=0;points=[];" vertex="1" connectable="0" parent="OzbAN5umfe2tvdXRKAje-28">
          <mxGeometry relative="1" as="geometry">
            <mxPoint y="-10" as="offset" />
          </mxGeometry>
        </mxCell>
        <mxCell id="OzbAN5umfe2tvdXRKAje-30" value="" style="endArrow=classic;html=1;rounded=0;entryX=1;entryY=0.625;entryDx=0;entryDy=0;entryPerimeter=0;exitX=0;exitY=0.667;exitDx=0;exitDy=0;exitPerimeter=0;" edge="1" source="OzbAN5umfe2tvdXRKAje-27" target="OzbAN5umfe2tvdXRKAje-26" parent="1">
          <mxGeometry width="50" height="50" relative="1" as="geometry">
            <mxPoint x="480" y="390" as="sourcePoint" />
            <mxPoint x="370" y="390" as="targetPoint" />
          </mxGeometry>
        </mxCell>
        <mxCell id="OzbAN5umfe2tvdXRKAje-31" value="&lt;div style=&quot;line-height: 100%;&quot;&gt;&lt;div&gt;&lt;div&gt;HTTP 200 No Error&lt;/div&gt;&lt;div&gt;&lt;font style=&quot;font-size: 10px;&quot;&gt;Cookie: [...]&lt;/font&gt;&lt;/div&gt;&lt;div&gt;&lt;i&gt;&lt;br&gt;&lt;/i&gt;&lt;/div&gt;&lt;div&gt;&lt;i&gt;or&lt;/i&gt;&lt;/div&gt;&lt;div&gt;&lt;i&gt;&lt;br&gt;&lt;/i&gt;&lt;/div&gt;&lt;div&gt;HTTP 401 Unauthorized&lt;/div&gt;&lt;/div&gt;&lt;/div&gt;" style="edgeLabel;html=1;align=center;verticalAlign=middle;resizable=0;points=[];labelBackgroundColor=none;" vertex="1" connectable="0" parent="OzbAN5umfe2tvdXRKAje-30">
          <mxGeometry y="36" relative="1" as="geometry">
            <mxPoint as="offset" />
          </mxGeometry>
        </mxCell>
        <mxCell id="OzbAN5umfe2tvdXRKAje-32" value="" style="endArrow=classic;html=1;rounded=0;entryX=0;entryY=0.25;entryDx=0;entryDy=0;" edge="1" parent="1">
          <mxGeometry width="50" height="50" relative="1" as="geometry">
            <mxPoint x="120" y="360" as="sourcePoint" />
            <mxPoint x="260.00000000000006" y="360" as="targetPoint" />
          </mxGeometry>
        </mxCell>
        <mxCell id="OzbAN5umfe2tvdXRKAje-33" value="POST /auth/login/" style="edgeLabel;html=1;align=center;verticalAlign=middle;resizable=0;points=[];" vertex="1" connectable="0" parent="OzbAN5umfe2tvdXRKAje-32">
          <mxGeometry relative="1" as="geometry">
            <mxPoint y="-10" as="offset" />
          </mxGeometry>
        </mxCell>
        <mxCell id="OzbAN5umfe2tvdXRKAje-34" value="" style="endArrow=classic;html=1;rounded=0;exitX=0;exitY=0.5;exitDx=0;exitDy=0;entryX=1;entryY=0.313;entryDx=0;entryDy=0;entryPerimeter=0;" edge="1" parent="1">
          <mxGeometry width="50" height="50" relative="1" as="geometry">
            <mxPoint x="260" y="400" as="sourcePoint" />
            <mxPoint x="120.00000000000006" y="400.08" as="targetPoint" />
          </mxGeometry>
        </mxCell>
        <mxCell id="OzbAN5umfe2tvdXRKAje-35" value="&lt;div style=&quot;line-height: 100%;&quot;&gt;&lt;div&gt;HTTP 200 No Error&lt;/div&gt;&lt;div&gt;&lt;font style=&quot;font-size: 10px;&quot;&gt;Cookie: [...]&lt;/font&gt;&lt;/div&gt;&lt;div&gt;&lt;i&gt;&lt;br&gt;&lt;/i&gt;&lt;/div&gt;&lt;div&gt;&lt;i&gt;or&lt;/i&gt;&lt;/div&gt;&lt;div&gt;&lt;i&gt;&lt;br&gt;&lt;/i&gt;&lt;/div&gt;&lt;div&gt;HTTP 401 Unauthorized&lt;/div&gt;&lt;div&gt;&lt;i&gt;&lt;br&gt;&lt;/i&gt;&lt;/div&gt;&lt;div&gt;&lt;i&gt;or&lt;/i&gt;&lt;/div&gt;&lt;div&gt;&lt;i&gt;&lt;br&gt;&lt;/i&gt;&lt;/div&gt;&lt;div&gt;HTTP 501 Service Unavailable&lt;/div&gt;&lt;div&gt;&lt;i&gt;(rate limited)&lt;/i&gt;&lt;/div&gt;&lt;/div&gt;" style="edgeLabel;html=1;align=center;verticalAlign=middle;resizable=0;points=[];labelBackgroundColor=none;" vertex="1" connectable="0" parent="OzbAN5umfe2tvdXRKAje-34">
          <mxGeometry y="65" relative="1" as="geometry">
            <mxPoint as="offset" />
          </mxGeometry>
        </mxCell>
        <mxCell id="OzbAN5umfe2tvdXRKAje-38" value="&lt;div&gt;&lt;b&gt;Browser&lt;/b&gt;&lt;/div&gt;" style="rounded=0;whiteSpace=wrap;html=1;" vertex="1" parent="1">
          <mxGeometry y="600" width="120" height="100" as="geometry" />
        </mxCell>
        <mxCell id="OzbAN5umfe2tvdXRKAje-39" value="" style="endArrow=classic;html=1;rounded=0;entryX=0;entryY=0.25;entryDx=0;entryDy=0;exitX=1;exitY=0.3;exitDx=0;exitDy=0;exitPerimeter=0;" edge="1" parent="1" source="OzbAN5umfe2tvdXRKAje-38" target="OzbAN5umfe2tvdXRKAje-41">
          <mxGeometry width="50" height="50" relative="1" as="geometry">
            <mxPoint x="130" y="630" as="sourcePoint" />
            <mxPoint x="240" y="630" as="targetPoint" />
          </mxGeometry>
        </mxCell>
        <mxCell id="OzbAN5umfe2tvdXRKAje-40" value="&lt;div&gt;HTTP-GET / -POST&lt;/div&gt;" style="edgeLabel;html=1;align=center;verticalAlign=middle;resizable=0;points=[];" vertex="1" connectable="0" parent="OzbAN5umfe2tvdXRKAje-39">
          <mxGeometry relative="1" as="geometry">
            <mxPoint y="-10" as="offset" />
          </mxGeometry>
        </mxCell>
        <mxCell id="OzbAN5umfe2tvdXRKAje-41" value="&lt;div style=&quot;line-height: 150%;&quot;&gt;&lt;div&gt;&lt;div&gt;&lt;b&gt;nginx&lt;/b&gt;&lt;/div&gt;&lt;div&gt;&lt;i&gt;&lt;font style=&quot;font-size: 10px; line-height: 150%;&quot;&gt;directive: auth_request&lt;/font&gt;&lt;/i&gt;&lt;/div&gt;&lt;/div&gt;&lt;/div&gt;" style="rounded=0;whiteSpace=wrap;html=1;" vertex="1" parent="1">
          <mxGeometry x="260" y="610" width="120" height="80" as="geometry" />
        </mxCell>
        <mxCell id="OzbAN5umfe2tvdXRKAje-42" value="&lt;div style=&quot;line-height: 150%;&quot;&gt;&lt;div&gt;&lt;b&gt;nginx-auth-server&lt;/b&gt;&lt;br&gt;&lt;div&gt;&lt;i&gt;&lt;font style=&quot;font-size: 10px; line-height: 150%;&quot;&gt;check_session()&lt;/font&gt;&lt;/i&gt;&lt;/div&gt;&lt;/div&gt;&lt;/div&gt;" style="rounded=0;whiteSpace=wrap;html=1;" vertex="1" parent="1">
          <mxGeometry x="520" y="620" width="120" height="60" as="geometry" />
        </mxCell>
        <mxCell id="OzbAN5umfe2tvdXRKAje-43" value="" style="endArrow=classic;html=1;rounded=0;entryX=0;entryY=0.333;entryDx=0;entryDy=0;entryPerimeter=0;exitX=1;exitY=0.375;exitDx=0;exitDy=0;exitPerimeter=0;" edge="1" parent="1" source="OzbAN5umfe2tvdXRKAje-41" target="OzbAN5umfe2tvdXRKAje-42">
          <mxGeometry width="50" height="50" relative="1" as="geometry">
            <mxPoint x="390" y="640" as="sourcePoint" />
            <mxPoint x="490" y="639.5" as="targetPoint" />
          </mxGeometry>
        </mxCell>
        <mxCell id="OzbAN5umfe2tvdXRKAje-44" value="GET /auth/check/" style="edgeLabel;html=1;align=center;verticalAlign=middle;resizable=0;points=[];" vertex="1" connectable="0" parent="OzbAN5umfe2tvdXRKAje-43">
          <mxGeometry relative="1" as="geometry">
            <mxPoint y="-10" as="offset" />
          </mxGeometry>
        </mxCell>
        <mxCell id="OzbAN5umfe2tvdXRKAje-45" value="Successful request" style="text;strokeColor=none;fillColor=none;html=1;fontSize=24;fontStyle=1;verticalAlign=middle;align=left;" vertex="1" parent="1">
          <mxGeometry y="560" width="460" height="40" as="geometry" />
        </mxCell>
        <mxCell id="OzbAN5umfe2tvdXRKAje-46" value="" style="endArrow=classic;html=1;rounded=0;entryX=1;entryY=0.625;entryDx=0;entryDy=0;entryPerimeter=0;exitX=0;exitY=0.667;exitDx=0;exitDy=0;exitPerimeter=0;" edge="1" parent="1" source="OzbAN5umfe2tvdXRKAje-42" target="OzbAN5umfe2tvdXRKAje-41">
          <mxGeometry width="50" height="50" relative="1" as="geometry">
            <mxPoint x="480" y="660" as="sourcePoint" />
            <mxPoint x="370" y="660" as="targetPoint" />
          </mxGeometry>
        </mxCell>
        <mxCell id="OzbAN5umfe2tvdXRKAje-47" value="HTTP 200 No Error" style="edgeLabel;html=1;align=center;verticalAlign=middle;resizable=0;points=[];" vertex="1" connectable="0" parent="OzbAN5umfe2tvdXRKAje-46">
          <mxGeometry y="10" relative="1" as="geometry">
            <mxPoint as="offset" />
          </mxGeometry>
        </mxCell>
        <mxCell id="OzbAN5umfe2tvdXRKAje-48" value="" style="endArrow=classic;html=1;rounded=0;exitX=0;exitY=0.75;exitDx=0;exitDy=0;entryX=1;entryY=0.7;entryDx=0;entryDy=0;entryPerimeter=0;" edge="1" parent="1" source="OzbAN5umfe2tvdXRKAje-41" target="OzbAN5umfe2tvdXRKAje-38">
          <mxGeometry width="50" height="50" relative="1" as="geometry">
            <mxPoint x="250" y="670" as="sourcePoint" />
            <mxPoint x="130" y="670" as="targetPoint" />
          </mxGeometry>
        </mxCell>
        <mxCell id="OzbAN5umfe2tvdXRKAje-49" value="Processed request" style="edgeLabel;html=1;align=center;verticalAlign=middle;resizable=0;points=[];fontStyle=2" vertex="1" connectable="0" parent="OzbAN5umfe2tvdXRKAje-48">
          <mxGeometry y="10" relative="1" as="geometry">
            <mxPoint as="offset" />
          </mxGeometry>
        </mxCell>
      </root>
    </mxGraphModel>
  </diagram>
</mxfile>
